<svg xmlns="http://www.w3.org/2000/svg" viewBox="0 0 1084 1084">
  <style>path{fill:#212129}@media (prefers-color-scheme:dark){path{fill:#ffffff}}</style>
  <g transform="translate(0 50)">
    <path d="M571.72 0L418.34 99.63H521.45L571.72 0Z"/>
    <path d="M471.71 0L318.33 99.63H421.44L471.71 0Z"/>
    <path d="M821.82 355.11H757.39L699.72 469H821.82C903.44 469 969.82 535.41 969.82 617C969.82 698.59 903.41 765 821.82 765H432.7L416.92 796.3C384.27 861.12 338.28 952.09 322.16 984H449.76C465.56 952.74 485.02 914.22 502.81 878.95H821.81C966.23 878.95 1083.71 761.47 1083.71 617.05C1083.71 472.63 966.24 355.11 821.82 355.11Z"/>
    <path d="M857.76 618.59C857.76 603.489 851.761 589.006 841.083 578.327C830.404 567.649 815.921 561.65 800.82 561.65H526.39L810.34 0H683L342.15 675.53H802.59C817.384 675.075 831.419 668.875 841.719 658.245C852.018 647.615 857.772 633.391 857.76 618.59Z"/>
    <path d="M290.64 561.08H121C122.74 551.31 125 540.65 127.87 529.37C144.41 464.84 173.51 411.32 214.35 370.29C265.09 319.29 334.15 288.61 420.18 278.6L480 160C403.79 160.54 334.73 172.84 274.66 196.61C219.75 218.34 171.66 249.83 131.76 290.23C-0.76004 424.39 -2.43357e-05 611.38 -2.43357e-05 619.28L0.679976 676.09H232.61L290.64 561.08Z"/>
    <path d="M292.65 493.53C319.988 493.53 342.15 471.368 342.15 444.03C342.15 416.692 319.988 394.53 292.65 394.53C265.312 394.53 243.15 416.692 243.15 444.03C243.15 471.368 265.312 493.53 292.65 493.53Z"/>
  </g>
</svg>
